<svg width="120" height="120" viewBox="0 0 60 60" fill="none" xmlns="http://www.w3.org/2000/svg">
    <title>Med24 Logo Icon</title>
    
    <path fill="#fff" d="M16.577 28.325h-.496c-1.473 0-2.672-1.175-2.672-2.617v-3.626c0-1.443 1.199-2.617 2.672-2.617h.496c1.473 0 2.672 1.174 2.672 2.617v3.625c0 1.443-1.199 2.618-2.672 2.618m-.496-7.775c-.863 0-1.565.688-1.565 1.533v3.626c0 .845.702 1.533 1.565 1.533h.496c.863 0 1.565-.688 1.565-1.533v-3.626c0-.845-.702-1.533-1.565-1.533zM16.577 12.534h-.496c-1.473 0-2.672-1.174-2.672-2.617V6.292c0-1.443 1.199-2.618 2.672-2.618h.496c1.473 0 2.672 1.175 2.672 2.618v3.625c0 1.443-1.199 2.617-2.672 2.617m-.496-7.774c-.863 0-1.565.687-1.565 1.533v3.625c0 .846.702 1.533 1.565 1.533h.496c.863 0 1.565-.687 1.565-1.533V6.293c0-.846-.702-1.533-1.565-1.533zM7.955 23.649q-.349 0-.696-.09a2.64 2.64 0 0 1-1.622-1.22l-.248-.42a2.55 2.55 0 0 1-.268-1.987 2.6 2.6 0 0 1 1.246-1.589l3.206-1.813c1.276-.722 2.913-.292 3.65.959l.248.42c.738 1.25.298 2.854-.978 3.576l-3.206 1.813a2.7 2.7 0 0 1-1.332.352zm2.95-6.385c-.27 0-.54.07-.78.206l-3.206 1.812a1.53 1.53 0 0 0-.73.93 1.5 1.5 0 0 0 .156 1.164l.248.42c.432.733 1.39.985 2.138.561l3.206-1.812a1.516 1.516 0 0 0 .572-2.094l-.248-.421a1.55 1.55 0 0 0-.95-.714 1.6 1.6 0 0 0-.407-.052M10.904 15.82c-.453 0-.913-.113-1.332-.35l-3.206-1.813a2.61 2.61 0 0 1-1.246-1.589 2.56 2.56 0 0 1 .268-1.986l.248-.421a2.65 2.65 0 0 1 1.622-1.22c.69-.18 1.41-.087 2.028.263l3.206 1.812a2.59 2.59 0 0 1 .978 3.576l-.248.42a2.69 2.69 0 0 1-2.318 1.309zM7.953 9.437c-.542 0-1.068.275-1.358.766l-.248.422a1.5 1.5 0 0 0-.156 1.163c.108.395.367.726.729.93l3.206 1.813c.747.422 1.706.17 2.137-.562l.248-.421a1.52 1.52 0 0 0-.572-2.094L8.733 9.643a1.6 1.6 0 0 0-.78-.205M21.796 15.82q-.349 0-.696-.09a2.64 2.64 0 0 1-1.622-1.22l-.248-.42a2.55 2.55 0 0 1-.268-1.987 2.6 2.6 0 0 1 1.245-1.589l3.206-1.813c1.276-.721 2.913-.291 3.65.959l.248.42c.358.606.452 1.311.268 1.987a2.6 2.6 0 0 1-1.246 1.589l-3.206 1.813a2.7 2.7 0 0 1-1.332.352zm2.95-6.383c-.265 0-.534.066-.78.205l-3.206 1.813a1.53 1.53 0 0 0-.73.93c-.107.395-.052.809.156 1.163l.248.421a1.587 1.587 0 0 0 2.137.562l3.207-1.813a1.517 1.517 0 0 0 .573-2.094l-.248-.42a1.57 1.57 0 0 0-1.358-.767zM24.745 23.648c-.453 0-.913-.113-1.332-.35l-3.206-1.813a2.61 2.61 0 0 1-1.246-1.589 2.56 2.56 0 0 1 .268-1.986l.248-.421c.737-1.25 2.374-1.68 3.65-.959l3.206 1.813c.618.35 1.06.914 1.245 1.589.184.675.09 1.38-.268 1.985l-.248.421a2.69 2.69 0 0 1-2.318 1.308zm-4.556-5.197a1.5 1.5 0 0 0-.156 1.163c.108.396.367.727.73.93l3.205 1.813c.362.205.784.26 1.188.153.403-.106.741-.36.95-.714l.247-.421a1.5 1.5 0 0 0 .156-1.163 1.53 1.53 0 0 0-.729-.93l-3.206-1.814a1.585 1.585 0 0 0-2.137.562z"></path>
  </svg>